<svg xmlns="http://www.w3.org/2000/svg" xmlns:xlink="http://www.w3.org/1999/xlink" width="500" zoomAndPan="magnify" viewBox="0 0 375 374.999991" height="500" preserveAspectRatio="xMidYMid meet" version="1.0"><defs><g/></defs><rect x="-37.5" width="450" fill="#ffffff" y="-37.499999" height="449.999989" fill-opacity="1"/><rect x="-37.5" width="450" fill="#1c2949" y="-37.499999" height="449.999989" fill-opacity="1"/><g fill="#a6a6a6" fill-opacity="1"><g transform="translate(113.035835, 318.8666)"><g><path d="M 26.671875 0 L 26.671875 -238 L 112.90625 -238 C 144.070312 -238 167.195312 -232.648438 182.28125 -221.953125 C 197.375 -211.253906 204.921875 -195.8125 204.921875 -175.625 C 204.921875 -163.769531 201.898438 -153.476562 195.859375 -144.75 C 189.828125 -136.03125 179.078125 -128.4375 163.609375 -121.96875 C 173.585938 -119.4375 181.648438 -116.03125 187.796875 -111.75 C 193.941406 -107.476562 198.660156 -102.734375 201.953125 -97.515625 C 205.242188 -92.304688 207.492188 -86.875 208.703125 -81.21875 C 209.910156 -75.570312 210.515625 -70.003906 210.515625 -64.515625 C 210.515625 -42.578125 203.050781 -26.335938 188.125 -15.796875 C 173.207031 -5.265625 149.453125 0 116.859375 0 Z M 74.5625 -37.203125 L 117.84375 -37.203125 C 132.332031 -37.203125 143.28125 -40.109375 150.6875 -45.921875 C 158.09375 -51.734375 161.796875 -59.523438 161.796875 -69.296875 C 161.796875 -76.316406 159.984375 -82.210938 156.359375 -86.984375 C 152.742188 -91.753906 147.832031 -95.347656 141.625 -97.765625 C 135.425781 -100.179688 128.378906 -101.390625 120.484375 -101.390625 L 74.5625 -101.390625 Z M 74.5625 -139.578125 L 120.484375 -139.578125 C 125.421875 -139.578125 130.164062 -140.148438 134.71875 -141.296875 C 139.269531 -142.453125 143.328125 -144.238281 146.890625 -146.65625 C 150.460938 -149.070312 153.289062 -152.171875 155.375 -155.953125 C 157.457031 -159.734375 158.5 -164.203125 158.5 -169.359375 C 158.5 -179.679688 154.628906 -187.5 146.890625 -192.8125 C 139.160156 -198.132812 129.257812 -200.796875 117.1875 -200.796875 L 74.5625 -200.796875 Z M 74.5625 -139.578125 "/></g></g></g><g fill="#ffffff" fill-opacity="1"><g transform="translate(52.004231, 299.889806)"><g><path d="M 26.671875 0 L 26.671875 -238 L 112.90625 -238 C 144.070312 -238 167.195312 -232.648438 182.28125 -221.953125 C 197.375 -211.253906 204.921875 -195.8125 204.921875 -175.625 C 204.921875 -163.769531 201.898438 -153.476562 195.859375 -144.75 C 189.828125 -136.03125 179.078125 -128.4375 163.609375 -121.96875 C 173.585938 -119.4375 181.648438 -116.03125 187.796875 -111.75 C 193.941406 -107.476562 198.660156 -102.734375 201.953125 -97.515625 C 205.242188 -92.304688 207.492188 -86.875 208.703125 -81.21875 C 209.910156 -75.570312 210.515625 -70.003906 210.515625 -64.515625 C 210.515625 -42.578125 203.050781 -26.335938 188.125 -15.796875 C 173.207031 -5.265625 149.453125 0 116.859375 0 Z M 74.5625 -37.203125 L 117.84375 -37.203125 C 132.332031 -37.203125 143.28125 -40.109375 150.6875 -45.921875 C 158.09375 -51.734375 161.796875 -59.523438 161.796875 -69.296875 C 161.796875 -76.316406 159.984375 -82.210938 156.359375 -86.984375 C 152.742188 -91.753906 147.832031 -95.347656 141.625 -97.765625 C 135.425781 -100.179688 128.378906 -101.390625 120.484375 -101.390625 L 74.5625 -101.390625 Z M 74.5625 -139.578125 L 120.484375 -139.578125 C 125.421875 -139.578125 130.164062 -140.148438 134.71875 -141.296875 C 139.269531 -142.453125 143.328125 -144.238281 146.890625 -146.65625 C 150.460938 -149.070312 153.289062 -152.171875 155.375 -155.953125 C 157.457031 -159.734375 158.5 -164.203125 158.5 -169.359375 C 158.5 -179.679688 154.628906 -187.5 146.890625 -192.8125 C 139.160156 -198.132812 129.257812 -200.796875 117.1875 -200.796875 L 74.5625 -200.796875 Z M 74.5625 -139.578125 "/></g></g></g></svg>