<svg xmlns="http://www.w3.org/2000/svg" xmlns:xlink="http://www.w3.org/1999/xlink" width="500" zoomAndPan="magnify" viewBox="0 0 375 374.999991" height="500" preserveAspectRatio="xMidYMid meet" version="1.0"><defs><g/></defs><g fill="#420a74" fill-opacity="1"><g transform="translate(106.6437, 202.07231)"><g><path d="M 20.890625 -15.453125 C 22.640625 -15.078125 24.039062 -14.207031 25.09375 -12.84375 C 26.15625 -11.488281 26.6875 -9.9375 26.6875 -8.1875 C 26.6875 -5.675781 25.804688 -3.679688 24.046875 -2.203125 C 22.285156 -0.734375 19.832031 0 16.6875 0 L 2.65625 0 L 2.65625 -30.125 L 16.21875 -30.125 C 19.28125 -30.125 21.675781 -29.421875 23.40625 -28.015625 C 25.132812 -26.617188 26 -24.71875 26 -22.3125 C 26 -20.539062 25.535156 -19.066406 24.609375 -17.890625 C 23.679688 -16.710938 22.441406 -15.898438 20.890625 -15.453125 Z M 10 -17.9375 L 14.796875 -17.9375 C 16.003906 -17.9375 16.925781 -18.195312 17.5625 -18.71875 C 18.207031 -19.25 18.53125 -20.03125 18.53125 -21.0625 C 18.53125 -22.09375 18.207031 -22.878906 17.5625 -23.421875 C 16.925781 -23.960938 16.003906 -24.234375 14.796875 -24.234375 L 10 -24.234375 Z M 15.40625 -5.921875 C 16.632812 -5.921875 17.582031 -6.195312 18.25 -6.75 C 18.925781 -7.3125 19.265625 -8.125 19.265625 -9.1875 C 19.265625 -10.238281 18.910156 -11.066406 18.203125 -11.671875 C 17.503906 -12.273438 16.539062 -12.578125 15.3125 -12.578125 L 10 -12.578125 L 10 -5.921875 Z M 15.40625 -5.921875 "/></g></g></g><g fill="#420a74" fill-opacity="1"><g transform="translate(136.508168, 202.07231)"><g><path d="M 9.875 -30.125 L 9.875 -12.09375 C 9.875 -10.289062 10.316406 -8.90625 11.203125 -7.9375 C 12.085938 -6.96875 13.390625 -6.484375 15.109375 -6.484375 C 16.816406 -6.484375 18.128906 -6.96875 19.046875 -7.9375 C 19.960938 -8.90625 20.421875 -10.289062 20.421875 -12.09375 L 20.421875 -30.125 L 27.765625 -30.125 L 27.765625 -12.140625 C 27.765625 -9.453125 27.191406 -7.175781 26.046875 -5.3125 C 24.898438 -3.457031 23.359375 -2.054688 21.421875 -1.109375 C 19.492188 -0.171875 17.34375 0.296875 14.96875 0.296875 C 12.59375 0.296875 10.46875 -0.164062 8.59375 -1.09375 C 6.726562 -2.019531 5.25 -3.421875 4.15625 -5.296875 C 3.070312 -7.171875 2.53125 -9.453125 2.53125 -12.140625 L 2.53125 -30.125 Z M 9.875 -30.125 "/></g></g></g><g fill="#420a74" fill-opacity="1"><g transform="translate(168.346411, 202.07231)"><g><path d="M 13.9375 -30.125 C 17.113281 -30.125 19.890625 -29.492188 22.265625 -28.234375 C 24.640625 -26.972656 26.476562 -25.203125 27.78125 -22.921875 C 29.082031 -20.648438 29.734375 -18.03125 29.734375 -15.0625 C 29.734375 -12.113281 29.082031 -9.492188 27.78125 -7.203125 C 26.476562 -4.921875 24.632812 -3.148438 22.25 -1.890625 C 19.863281 -0.628906 17.09375 0 13.9375 0 L 2.65625 0 L 2.65625 -30.125 Z M 13.46875 -6.34375 C 16.25 -6.34375 18.410156 -7.097656 19.953125 -8.609375 C 21.492188 -10.128906 22.265625 -12.28125 22.265625 -15.0625 C 22.265625 -17.832031 21.492188 -19.988281 19.953125 -21.53125 C 18.410156 -23.082031 16.25 -23.859375 13.46875 -23.859375 L 10 -23.859375 L 10 -6.34375 Z M 13.46875 -6.34375 "/></g></g></g><g fill="#420a74" fill-opacity="1"><g transform="translate(201.128631, 202.07231)"><g><path d="M 22.65625 -20.59375 C 22.113281 -21.59375 21.332031 -22.359375 20.3125 -22.890625 C 19.300781 -23.421875 18.109375 -23.6875 16.734375 -23.6875 C 14.359375 -23.6875 12.453125 -22.90625 11.015625 -21.34375 C 9.585938 -19.78125 8.875 -17.703125 8.875 -15.109375 C 8.875 -12.328125 9.625 -10.15625 11.125 -8.59375 C 12.632812 -7.039062 14.703125 -6.265625 17.328125 -6.265625 C 19.128906 -6.265625 20.648438 -6.722656 21.890625 -7.640625 C 23.140625 -8.554688 24.050781 -9.867188 24.625 -11.578125 L 15.3125 -11.578125 L 15.3125 -16.984375 L 31.28125 -16.984375 L 31.28125 -10.171875 C 30.738281 -8.335938 29.816406 -6.632812 28.515625 -5.0625 C 27.210938 -3.488281 25.554688 -2.210938 23.546875 -1.234375 C 21.546875 -0.265625 19.289062 0.21875 16.78125 0.21875 C 13.800781 0.21875 11.144531 -0.429688 8.8125 -1.734375 C 6.488281 -3.035156 4.675781 -4.84375 3.375 -7.15625 C 2.070312 -9.476562 1.421875 -12.128906 1.421875 -15.109375 C 1.421875 -18.078125 2.070312 -20.726562 3.375 -23.0625 C 4.675781 -25.394531 6.484375 -27.210938 8.796875 -28.515625 C 11.109375 -29.816406 13.753906 -30.46875 16.734375 -30.46875 C 20.335938 -30.46875 23.375 -29.59375 25.84375 -27.84375 C 28.320312 -26.101562 29.960938 -23.6875 30.765625 -20.59375 Z M 22.65625 -20.59375 "/></g></g></g><g fill="#420a74" fill-opacity="1"><g transform="translate(235.412645, 202.07231)"><g><path d="M 10 -24.234375 L 10 -18.15625 L 19.828125 -18.15625 L 19.828125 -12.484375 L 10 -12.484375 L 10 -5.875 L 21.109375 -5.875 L 21.109375 0 L 2.65625 0 L 2.65625 -30.125 L 21.109375 -30.125 L 21.109375 -24.234375 Z M 10 -24.234375 "/></g></g></g><g fill="#420a74" fill-opacity="1"><g transform="translate(260.213973, 202.07231)"><g><path d="M 24.328125 -30.125 L 24.328125 -24.234375 L 16.34375 -24.234375 L 16.34375 0 L 9.015625 0 L 9.015625 -24.234375 L 1.03125 -24.234375 L 1.03125 -30.125 Z M 24.328125 -30.125 "/></g></g></g><g fill="#420a74" fill-opacity="1"><g transform="translate(172.622206, 226.362788)"><g><path d="M 5.921875 -5.25 C 6.484375 -5.132812 6.960938 -4.835938 7.359375 -4.359375 C 7.765625 -3.890625 7.96875 -3.34375 7.96875 -2.71875 C 7.96875 -2.207031 7.835938 -1.742188 7.578125 -1.328125 C 7.316406 -0.921875 6.9375 -0.597656 6.4375 -0.359375 C 5.945312 -0.117188 5.359375 0 4.671875 0 L 1.15625 0 L 1.15625 -10.15625 L 4.578125 -10.15625 C 5.609375 -10.15625 6.390625 -9.914062 6.921875 -9.4375 C 7.460938 -8.96875 7.734375 -8.351562 7.734375 -7.59375 C 7.734375 -6.96875 7.5625 -6.457031 7.21875 -6.0625 C 6.882812 -5.675781 6.453125 -5.40625 5.921875 -5.25 Z M 2.171875 -5.671875 L 4.546875 -5.671875 C 5.234375 -5.671875 5.765625 -5.832031 6.140625 -6.15625 C 6.515625 -6.476562 6.703125 -6.925781 6.703125 -7.5 C 6.703125 -8.0625 6.515625 -8.5 6.140625 -8.8125 C 5.765625 -9.132812 5.21875 -9.296875 4.5 -9.296875 L 2.171875 -9.296875 Z M 4.609375 -0.859375 C 5.335938 -0.859375 5.910156 -1.03125 6.328125 -1.375 C 6.742188 -1.726562 6.953125 -2.207031 6.953125 -2.8125 C 6.953125 -3.425781 6.734375 -3.914062 6.296875 -4.28125 C 5.867188 -4.644531 5.289062 -4.828125 4.5625 -4.828125 L 2.171875 -4.828125 L 2.171875 -0.859375 Z M 4.609375 -0.859375 "/></g></g></g><g fill="#420a74" fill-opacity="1"><g transform="translate(181.296788, 226.362788)"><g><path d="M 2.140625 -10.15625 L 2.140625 -3.765625 C 2.140625 -2.753906 2.378906 -2.003906 2.859375 -1.515625 C 3.335938 -1.035156 3.992188 -0.796875 4.828125 -0.796875 C 5.660156 -0.796875 6.3125 -1.035156 6.78125 -1.515625 C 7.25 -1.992188 7.484375 -2.742188 7.484375 -3.765625 L 7.484375 -10.15625 L 8.5 -10.15625 L 8.5 -3.78125 C 8.5 -2.488281 8.15625 -1.515625 7.46875 -0.859375 C 6.789062 -0.210938 5.90625 0.109375 4.8125 0.109375 C 3.71875 0.109375 2.828125 -0.210938 2.140625 -0.859375 C 1.460938 -1.515625 1.125 -2.488281 1.125 -3.78125 L 1.125 -10.15625 Z M 2.140625 -10.15625 "/></g></g></g><g fill="#420a74" fill-opacity="1"><g transform="translate(190.901308, 226.362788)"><g><path d="M 4.171875 -10.15625 C 5.296875 -10.15625 6.257812 -9.953125 7.0625 -9.546875 C 7.863281 -9.140625 8.476562 -8.550781 8.90625 -7.78125 C 9.332031 -7.019531 9.546875 -6.113281 9.546875 -5.0625 C 9.546875 -4.007812 9.332031 -3.101562 8.90625 -2.34375 C 8.476562 -1.582031 7.863281 -1 7.0625 -0.59375 C 6.257812 -0.195312 5.296875 0 4.171875 0 L 1.15625 0 L 1.15625 -10.15625 Z M 4.171875 -0.84375 C 5.585938 -0.84375 6.664062 -1.210938 7.40625 -1.953125 C 8.144531 -2.691406 8.515625 -3.726562 8.515625 -5.0625 C 8.515625 -6.394531 8.144531 -7.4375 7.40625 -8.1875 C 6.664062 -8.9375 5.585938 -9.3125 4.171875 -9.3125 L 2.171875 -9.3125 L 2.171875 -0.84375 Z M 4.171875 -0.84375 "/></g></g></g><g fill="#420a74" fill-opacity="1"><g transform="translate(201.159696, 226.362788)"><g><path d="M 4.171875 -10.15625 C 5.296875 -10.15625 6.257812 -9.953125 7.0625 -9.546875 C 7.863281 -9.140625 8.476562 -8.550781 8.90625 -7.78125 C 9.332031 -7.019531 9.546875 -6.113281 9.546875 -5.0625 C 9.546875 -4.007812 9.332031 -3.101562 8.90625 -2.34375 C 8.476562 -1.582031 7.863281 -1 7.0625 -0.59375 C 6.257812 -0.195312 5.296875 0 4.171875 0 L 1.15625 0 L 1.15625 -10.15625 Z M 4.171875 -0.84375 C 5.585938 -0.84375 6.664062 -1.210938 7.40625 -1.953125 C 8.144531 -2.691406 8.515625 -3.726562 8.515625 -5.0625 C 8.515625 -6.394531 8.144531 -7.4375 7.40625 -8.1875 C 6.664062 -8.9375 5.585938 -9.3125 4.171875 -9.3125 L 2.171875 -9.3125 L 2.171875 -0.84375 Z M 4.171875 -0.84375 "/></g></g></g><g fill="#420a74" fill-opacity="1"><g transform="translate(211.418085, 226.362788)"><g><path d="M 7.875 -10.15625 L 4.625 -3.953125 L 4.625 0 L 3.609375 0 L 3.609375 -3.953125 L 0.3125 -10.15625 L 1.46875 -10.15625 L 4.109375 -4.875 L 6.75 -10.15625 Z M 7.875 -10.15625 "/></g></g></g><path stroke-linecap="butt" transform="matrix(0.75, -0.000000000000000186, 0.000000000000000186, 0.75, 97.185298, 153.633624)" fill="none" stroke-linejoin="miter" d="M -0.00227249 3.498919 L 263.82587 3.498919 " stroke="#420a74" stroke-width="7" stroke-opacity="1" stroke-miterlimit="4"/><path stroke-linecap="butt" transform="matrix(0, -0.75, 0.75, 0, 96.62203, 224.907055)" fill="none" stroke-linejoin="miter" d="M 0.00107311 3.498752 L 95.032329 3.498752 " stroke="#420a74" stroke-width="7" stroke-opacity="1" stroke-miterlimit="4"/><path stroke-linecap="butt" transform="matrix(0, -0.75, 0.75, 0, 290.521128, 224.907055)" fill="none" stroke-linejoin="miter" d="M 0.00107311 3.497871 L 95.032329 3.497871 " stroke="#420a74" stroke-width="7" stroke-opacity="1" stroke-miterlimit="4"/><path stroke-linecap="butt" transform="matrix(0.75, 0, 0, 0.75, 225.871703, 219.657173)" fill="none" stroke-linejoin="miter" d="M -0.00081269 3.49877 L 92.243985 3.49877 " stroke="#420a74" stroke-width="7" stroke-opacity="1" stroke-miterlimit="4"/><path stroke-linecap="butt" transform="matrix(0.75, 0, 0, 0.75, 97.185298, 219.657173)" fill="none" stroke-linejoin="miter" d="M -0.00227249 3.49877 L 92.247734 3.49877 " stroke="#420a74" stroke-width="7" stroke-opacity="1" stroke-miterlimit="4"/></svg>