<svg xmlns="http://www.w3.org/2000/svg" xmlns:xlink="http://www.w3.org/1999/xlink" width="500" zoomAndPan="magnify" viewBox="0 0 375 374.999991" height="500" preserveAspectRatio="xMidYMid meet" version="1.0"><defs><g/></defs><g fill="#dddbda" fill-opacity="1"><g transform="translate(129.300876, 247.874984)"><g><path d="M 13.765625 0 L 13.765625 -122.9375 L 58.328125 -122.9375 C 74.421875 -122.9375 86.363281 -120.171875 94.15625 -114.640625 C 101.945312 -109.117188 105.84375 -101.144531 105.84375 -90.71875 C 105.84375 -84.59375 104.285156 -79.273438 101.171875 -74.765625 C 98.054688 -70.265625 92.5 -66.34375 84.5 -63 C 89.65625 -61.695312 93.820312 -59.9375 97 -57.71875 C 100.175781 -55.507812 102.613281 -53.054688 104.3125 -50.359375 C 106.007812 -47.671875 107.171875 -44.867188 107.796875 -41.953125 C 108.421875 -39.035156 108.734375 -36.160156 108.734375 -33.328125 C 108.734375 -21.992188 104.878906 -13.601562 97.171875 -8.15625 C 89.460938 -2.71875 77.191406 0 60.359375 0 Z M 38.515625 -19.21875 L 60.875 -19.21875 C 68.351562 -19.21875 74.003906 -20.71875 77.828125 -23.71875 C 81.648438 -26.71875 83.5625 -30.742188 83.5625 -35.796875 C 83.5625 -39.421875 82.625 -42.460938 80.75 -44.921875 C 78.882812 -47.390625 76.351562 -49.25 73.15625 -50.5 C 69.957031 -51.75 66.316406 -52.375 62.234375 -52.375 L 38.515625 -52.375 Z M 38.515625 -72.09375 L 62.234375 -72.09375 C 64.785156 -72.09375 67.234375 -72.390625 69.578125 -72.984375 C 71.929688 -73.578125 74.03125 -74.5 75.875 -75.75 C 77.71875 -77 79.175781 -78.597656 80.25 -80.546875 C 81.332031 -82.503906 81.875 -84.816406 81.875 -87.484375 C 81.875 -92.804688 79.875 -96.84375 75.875 -99.59375 C 71.875 -102.34375 66.757812 -103.71875 60.53125 -103.71875 L 38.515625 -103.71875 Z M 38.515625 -72.09375 "/></g></g></g><g fill="#0b2974" fill-opacity="1"><g transform="translate(97.777643, 238.073363)"><g><path d="M 13.765625 0 L 13.765625 -122.9375 L 58.328125 -122.9375 C 74.421875 -122.9375 86.363281 -120.171875 94.15625 -114.640625 C 101.945312 -109.117188 105.84375 -101.144531 105.84375 -90.71875 C 105.84375 -84.59375 104.285156 -79.273438 101.171875 -74.765625 C 98.054688 -70.265625 92.5 -66.34375 84.5 -63 C 89.65625 -61.695312 93.820312 -59.9375 97 -57.71875 C 100.175781 -55.507812 102.613281 -53.054688 104.3125 -50.359375 C 106.007812 -47.671875 107.171875 -44.867188 107.796875 -41.953125 C 108.421875 -39.035156 108.734375 -36.160156 108.734375 -33.328125 C 108.734375 -21.992188 104.878906 -13.601562 97.171875 -8.15625 C 89.460938 -2.71875 77.191406 0 60.359375 0 Z M 38.515625 -19.21875 L 60.875 -19.21875 C 68.351562 -19.21875 74.003906 -20.71875 77.828125 -23.71875 C 81.648438 -26.71875 83.5625 -30.742188 83.5625 -35.796875 C 83.5625 -39.421875 82.625 -42.460938 80.75 -44.921875 C 78.882812 -47.390625 76.351562 -49.25 73.15625 -50.5 C 69.957031 -51.75 66.316406 -52.375 62.234375 -52.375 L 38.515625 -52.375 Z M 38.515625 -72.09375 L 62.234375 -72.09375 C 64.785156 -72.09375 67.234375 -72.390625 69.578125 -72.984375 C 71.929688 -73.578125 74.03125 -74.5 75.875 -75.75 C 77.71875 -77 79.175781 -78.597656 80.25 -80.546875 C 81.332031 -82.503906 81.875 -84.816406 81.875 -87.484375 C 81.875 -92.804688 79.875 -96.84375 75.875 -99.59375 C 71.875 -102.34375 66.757812 -103.71875 60.53125 -103.71875 L 38.515625 -103.71875 Z M 38.515625 -72.09375 "/></g></g></g></svg>